<?xml version="1.0" encoding="utf-8" standalone="no"?>
<!DOCTYPE svg PUBLIC "-//W3C//DTD SVG 1.1//EN"
  "http://www.w3.org/Graphics/SVG/1.1/DTD/svg11.dtd">
<svg xmlns:xlink="http://www.w3.org/1999/xlink" width="414.46375pt" height="325.986375pt" viewBox="0 0 414.46375 325.986375" xmlns="http://www.w3.org/2000/svg" version="1.1">
 <metadata>
  <rdf:RDF xmlns:dc="http://purl.org/dc/elements/1.1/" xmlns:cc="http://creativecommons.org/ns#" xmlns:rdf="http://www.w3.org/1999/02/22-rdf-syntax-ns#">
   <cc:Work>
    <dc:type rdf:resource="http://purl.org/dc/dcmitype/StillImage"/>
    <dc:date>2025-04-05T17:20:45.990381</dc:date>
    <dc:format>image/svg+xml</dc:format>
    <dc:creator>
     <cc:Agent>
      <dc:title>Matplotlib v3.5.3, https://matplotlib.org/</dc:title>
     </cc:Agent>
    </dc:creator>
   </cc:Work>
  </rdf:RDF>
 </metadata>
 <defs>
  <style type="text/css">*{stroke-linejoin: round; stroke-linecap: butt}</style>
 </defs>
 <g id="figure_1">
  <g id="patch_1">
   <path d="M 0 325.986375 
L 414.46375 325.986375 
L 414.46375 0 
L 0 0 
z
" style="fill: #ffffff"/>
  </g>
  <g id="axes_1">
   <g id="patch_2">
    <path d="M 50.14375 288.430125 
L 407.26375 288.430125 
L 407.26375 22.318125 
L 50.14375 22.318125 
z
" style="fill: #ffffff"/>
   </g>
   <g id="matplotlib.axis_1">
    <g id="xtick_1">
     <g id="line2d_1">
      <defs>
       <path id="m78aeb6cf4e" d="M 0 0 
L 0 3.5 
" style="stroke: #000000; stroke-width: 0.8"/>
      </defs>
      <g>
       <use xlink:href="#m78aeb6cf4e" x="64.745047" y="288.430125" style="stroke: #000000; stroke-width: 0.8"/>
      </g>
     </g>
     <g id="text_1">
      <!-- 0 -->
      <g transform="translate(61.563797 303.028562)scale(0.1 -0.1)">
       <defs>
        <path id="DejaVuSans-30" d="M 2034 4250 
Q 1547 4250 1301 3770 
Q 1056 3291 1056 2328 
Q 1056 1369 1301 889 
Q 1547 409 2034 409 
Q 2525 409 2770 889 
Q 3016 1369 3016 2328 
Q 3016 3291 2770 3770 
Q 2525 4250 2034 4250 
z
M 2034 4750 
Q 2819 4750 3233 4129 
Q 3647 3509 3647 2328 
Q 3647 1150 3233 529 
Q 2819 -91 2034 -91 
Q 1250 -91 836 529 
Q 422 1150 422 2328 
Q 422 3509 836 4129 
Q 1250 4750 2034 4750 
z
" transform="scale(0.015625)"/>
       </defs>
       <use xlink:href="#DejaVuSans-30"/>
      </g>
     </g>
    </g>
    <g id="xtick_2">
     <g id="line2d_2">
      <g>
       <use xlink:href="#m78aeb6cf4e" x="105.530794" y="288.430125" style="stroke: #000000; stroke-width: 0.8"/>
      </g>
     </g>
     <g id="text_2">
      <!-- 25 -->
      <g transform="translate(99.168294 303.028562)scale(0.1 -0.1)">
       <defs>
        <path id="DejaVuSans-32" d="M 1228 531 
L 3431 531 
L 3431 0 
L 469 0 
L 469 531 
Q 828 903 1448 1529 
Q 2069 2156 2228 2338 
Q 2531 2678 2651 2914 
Q 2772 3150 2772 3378 
Q 2772 3750 2511 3984 
Q 2250 4219 1831 4219 
Q 1534 4219 1204 4116 
Q 875 4013 500 3803 
L 500 4441 
Q 881 4594 1212 4672 
Q 1544 4750 1819 4750 
Q 2544 4750 2975 4387 
Q 3406 4025 3406 3419 
Q 3406 3131 3298 2873 
Q 3191 2616 2906 2266 
Q 2828 2175 2409 1742 
Q 1991 1309 1228 531 
z
" transform="scale(0.015625)"/>
        <path id="DejaVuSans-35" d="M 691 4666 
L 3169 4666 
L 3169 4134 
L 1269 4134 
L 1269 2991 
Q 1406 3038 1543 3061 
Q 1681 3084 1819 3084 
Q 2600 3084 3056 2656 
Q 3513 2228 3513 1497 
Q 3513 744 3044 326 
Q 2575 -91 1722 -91 
Q 1428 -91 1123 -41 
Q 819 9 494 109 
L 494 744 
Q 775 591 1075 516 
Q 1375 441 1709 441 
Q 2250 441 2565 725 
Q 2881 1009 2881 1497 
Q 2881 1984 2565 2268 
Q 2250 2553 1709 2553 
Q 1456 2553 1204 2497 
Q 953 2441 691 2322 
L 691 4666 
z
" transform="scale(0.015625)"/>
       </defs>
       <use xlink:href="#DejaVuSans-32"/>
       <use xlink:href="#DejaVuSans-35" x="63.623047"/>
      </g>
     </g>
    </g>
    <g id="xtick_3">
     <g id="line2d_3">
      <g>
       <use xlink:href="#m78aeb6cf4e" x="146.316541" y="288.430125" style="stroke: #000000; stroke-width: 0.8"/>
      </g>
     </g>
     <g id="text_3">
      <!-- 50 -->
      <g transform="translate(139.954041 303.028562)scale(0.1 -0.1)">
       <use xlink:href="#DejaVuSans-35"/>
       <use xlink:href="#DejaVuSans-30" x="63.623047"/>
      </g>
     </g>
    </g>
    <g id="xtick_4">
     <g id="line2d_4">
      <g>
       <use xlink:href="#m78aeb6cf4e" x="187.102288" y="288.430125" style="stroke: #000000; stroke-width: 0.8"/>
      </g>
     </g>
     <g id="text_4">
      <!-- 75 -->
      <g transform="translate(180.739788 303.028562)scale(0.1 -0.1)">
       <defs>
        <path id="DejaVuSans-37" d="M 525 4666 
L 3525 4666 
L 3525 4397 
L 1831 0 
L 1172 0 
L 2766 4134 
L 525 4134 
L 525 4666 
z
" transform="scale(0.015625)"/>
       </defs>
       <use xlink:href="#DejaVuSans-37"/>
       <use xlink:href="#DejaVuSans-35" x="63.623047"/>
      </g>
     </g>
    </g>
    <g id="xtick_5">
     <g id="line2d_5">
      <g>
       <use xlink:href="#m78aeb6cf4e" x="227.888035" y="288.430125" style="stroke: #000000; stroke-width: 0.8"/>
      </g>
     </g>
     <g id="text_5">
      <!-- 100 -->
      <g transform="translate(218.344285 303.028562)scale(0.1 -0.1)">
       <defs>
        <path id="DejaVuSans-31" d="M 794 531 
L 1825 531 
L 1825 4091 
L 703 3866 
L 703 4441 
L 1819 4666 
L 2450 4666 
L 2450 531 
L 3481 531 
L 3481 0 
L 794 0 
L 794 531 
z
" transform="scale(0.015625)"/>
       </defs>
       <use xlink:href="#DejaVuSans-31"/>
       <use xlink:href="#DejaVuSans-30" x="63.623047"/>
       <use xlink:href="#DejaVuSans-30" x="127.246094"/>
      </g>
     </g>
    </g>
    <g id="xtick_6">
     <g id="line2d_6">
      <g>
       <use xlink:href="#m78aeb6cf4e" x="268.673782" y="288.430125" style="stroke: #000000; stroke-width: 0.8"/>
      </g>
     </g>
     <g id="text_6">
      <!-- 125 -->
      <g transform="translate(259.130032 303.028562)scale(0.1 -0.1)">
       <use xlink:href="#DejaVuSans-31"/>
       <use xlink:href="#DejaVuSans-32" x="63.623047"/>
       <use xlink:href="#DejaVuSans-35" x="127.246094"/>
      </g>
     </g>
    </g>
    <g id="xtick_7">
     <g id="line2d_7">
      <g>
       <use xlink:href="#m78aeb6cf4e" x="309.459529" y="288.430125" style="stroke: #000000; stroke-width: 0.8"/>
      </g>
     </g>
     <g id="text_7">
      <!-- 150 -->
      <g transform="translate(299.915779 303.028562)scale(0.1 -0.1)">
       <use xlink:href="#DejaVuSans-31"/>
       <use xlink:href="#DejaVuSans-35" x="63.623047"/>
       <use xlink:href="#DejaVuSans-30" x="127.246094"/>
      </g>
     </g>
    </g>
    <g id="xtick_8">
     <g id="line2d_8">
      <g>
       <use xlink:href="#m78aeb6cf4e" x="350.245276" y="288.430125" style="stroke: #000000; stroke-width: 0.8"/>
      </g>
     </g>
     <g id="text_8">
      <!-- 175 -->
      <g transform="translate(340.701526 303.028562)scale(0.1 -0.1)">
       <use xlink:href="#DejaVuSans-31"/>
       <use xlink:href="#DejaVuSans-37" x="63.623047"/>
       <use xlink:href="#DejaVuSans-35" x="127.246094"/>
      </g>
     </g>
    </g>
    <g id="xtick_9">
     <g id="line2d_9">
      <g>
       <use xlink:href="#m78aeb6cf4e" x="391.031023" y="288.430125" style="stroke: #000000; stroke-width: 0.8"/>
      </g>
     </g>
     <g id="text_9">
      <!-- 200 -->
      <g transform="translate(381.487273 303.028562)scale(0.1 -0.1)">
       <use xlink:href="#DejaVuSans-32"/>
       <use xlink:href="#DejaVuSans-30" x="63.623047"/>
       <use xlink:href="#DejaVuSans-30" x="127.246094"/>
      </g>
     </g>
    </g>
    <g id="text_10">
     <!-- Epoch -->
     <g transform="translate(213.392813 316.706687)scale(0.1 -0.1)">
      <defs>
       <path id="DejaVuSans-45" d="M 628 4666 
L 3578 4666 
L 3578 4134 
L 1259 4134 
L 1259 2753 
L 3481 2753 
L 3481 2222 
L 1259 2222 
L 1259 531 
L 3634 531 
L 3634 0 
L 628 0 
L 628 4666 
z
" transform="scale(0.015625)"/>
       <path id="DejaVuSans-70" d="M 1159 525 
L 1159 -1331 
L 581 -1331 
L 581 3500 
L 1159 3500 
L 1159 2969 
Q 1341 3281 1617 3432 
Q 1894 3584 2278 3584 
Q 2916 3584 3314 3078 
Q 3713 2572 3713 1747 
Q 3713 922 3314 415 
Q 2916 -91 2278 -91 
Q 1894 -91 1617 61 
Q 1341 213 1159 525 
z
M 3116 1747 
Q 3116 2381 2855 2742 
Q 2594 3103 2138 3103 
Q 1681 3103 1420 2742 
Q 1159 2381 1159 1747 
Q 1159 1113 1420 752 
Q 1681 391 2138 391 
Q 2594 391 2855 752 
Q 3116 1113 3116 1747 
z
" transform="scale(0.015625)"/>
       <path id="DejaVuSans-6f" d="M 1959 3097 
Q 1497 3097 1228 2736 
Q 959 2375 959 1747 
Q 959 1119 1226 758 
Q 1494 397 1959 397 
Q 2419 397 2687 759 
Q 2956 1122 2956 1747 
Q 2956 2369 2687 2733 
Q 2419 3097 1959 3097 
z
M 1959 3584 
Q 2709 3584 3137 3096 
Q 3566 2609 3566 1747 
Q 3566 888 3137 398 
Q 2709 -91 1959 -91 
Q 1206 -91 779 398 
Q 353 888 353 1747 
Q 353 2609 779 3096 
Q 1206 3584 1959 3584 
z
" transform="scale(0.015625)"/>
       <path id="DejaVuSans-63" d="M 3122 3366 
L 3122 2828 
Q 2878 2963 2633 3030 
Q 2388 3097 2138 3097 
Q 1578 3097 1268 2742 
Q 959 2388 959 1747 
Q 959 1106 1268 751 
Q 1578 397 2138 397 
Q 2388 397 2633 464 
Q 2878 531 3122 666 
L 3122 134 
Q 2881 22 2623 -34 
Q 2366 -91 2075 -91 
Q 1284 -91 818 406 
Q 353 903 353 1747 
Q 353 2603 823 3093 
Q 1294 3584 2113 3584 
Q 2378 3584 2631 3529 
Q 2884 3475 3122 3366 
z
" transform="scale(0.015625)"/>
       <path id="DejaVuSans-68" d="M 3513 2113 
L 3513 0 
L 2938 0 
L 2938 2094 
Q 2938 2591 2744 2837 
Q 2550 3084 2163 3084 
Q 1697 3084 1428 2787 
Q 1159 2491 1159 1978 
L 1159 0 
L 581 0 
L 581 4863 
L 1159 4863 
L 1159 2956 
Q 1366 3272 1645 3428 
Q 1925 3584 2291 3584 
Q 2894 3584 3203 3211 
Q 3513 2838 3513 2113 
z
" transform="scale(0.015625)"/>
      </defs>
      <use xlink:href="#DejaVuSans-45"/>
      <use xlink:href="#DejaVuSans-70" x="63.183594"/>
      <use xlink:href="#DejaVuSans-6f" x="126.660156"/>
      <use xlink:href="#DejaVuSans-63" x="187.841797"/>
      <use xlink:href="#DejaVuSans-68" x="242.822266"/>
     </g>
    </g>
   </g>
   <g id="matplotlib.axis_2">
    <g id="ytick_1">
     <g id="line2d_10">
      <defs>
       <path id="m8bf38d3524" d="M 0 0 
L -3.5 0 
" style="stroke: #000000; stroke-width: 0.8"/>
      </defs>
      <g>
       <use xlink:href="#m8bf38d3524" x="50.14375" y="259.396637" style="stroke: #000000; stroke-width: 0.8"/>
      </g>
     </g>
     <g id="text_11">
      <!-- 0.60 -->
      <g transform="translate(20.878125 263.195856)scale(0.1 -0.1)">
       <defs>
        <path id="DejaVuSans-2e" d="M 684 794 
L 1344 794 
L 1344 0 
L 684 0 
L 684 794 
z
" transform="scale(0.015625)"/>
        <path id="DejaVuSans-36" d="M 2113 2584 
Q 1688 2584 1439 2293 
Q 1191 2003 1191 1497 
Q 1191 994 1439 701 
Q 1688 409 2113 409 
Q 2538 409 2786 701 
Q 3034 994 3034 1497 
Q 3034 2003 2786 2293 
Q 2538 2584 2113 2584 
z
M 3366 4563 
L 3366 3988 
Q 3128 4100 2886 4159 
Q 2644 4219 2406 4219 
Q 1781 4219 1451 3797 
Q 1122 3375 1075 2522 
Q 1259 2794 1537 2939 
Q 1816 3084 2150 3084 
Q 2853 3084 3261 2657 
Q 3669 2231 3669 1497 
Q 3669 778 3244 343 
Q 2819 -91 2113 -91 
Q 1303 -91 875 529 
Q 447 1150 447 2328 
Q 447 3434 972 4092 
Q 1497 4750 2381 4750 
Q 2619 4750 2861 4703 
Q 3103 4656 3366 4563 
z
" transform="scale(0.015625)"/>
       </defs>
       <use xlink:href="#DejaVuSans-30"/>
       <use xlink:href="#DejaVuSans-2e" x="63.623047"/>
       <use xlink:href="#DejaVuSans-36" x="95.410156"/>
       <use xlink:href="#DejaVuSans-30" x="159.033203"/>
      </g>
     </g>
    </g>
    <g id="ytick_2">
     <g id="line2d_11">
      <g>
       <use xlink:href="#m8bf38d3524" x="50.14375" y="221.770557" style="stroke: #000000; stroke-width: 0.8"/>
      </g>
     </g>
     <g id="text_12">
      <!-- 0.65 -->
      <g transform="translate(20.878125 225.569775)scale(0.1 -0.1)">
       <use xlink:href="#DejaVuSans-30"/>
       <use xlink:href="#DejaVuSans-2e" x="63.623047"/>
       <use xlink:href="#DejaVuSans-36" x="95.410156"/>
       <use xlink:href="#DejaVuSans-35" x="159.033203"/>
      </g>
     </g>
    </g>
    <g id="ytick_3">
     <g id="line2d_12">
      <g>
       <use xlink:href="#m8bf38d3524" x="50.14375" y="184.144476" style="stroke: #000000; stroke-width: 0.8"/>
      </g>
     </g>
     <g id="text_13">
      <!-- 0.70 -->
      <g transform="translate(20.878125 187.943695)scale(0.1 -0.1)">
       <use xlink:href="#DejaVuSans-30"/>
       <use xlink:href="#DejaVuSans-2e" x="63.623047"/>
       <use xlink:href="#DejaVuSans-37" x="95.410156"/>
       <use xlink:href="#DejaVuSans-30" x="159.033203"/>
      </g>
     </g>
    </g>
    <g id="ytick_4">
     <g id="line2d_13">
      <g>
       <use xlink:href="#m8bf38d3524" x="50.14375" y="146.518396" style="stroke: #000000; stroke-width: 0.8"/>
      </g>
     </g>
     <g id="text_14">
      <!-- 0.75 -->
      <g transform="translate(20.878125 150.317615)scale(0.1 -0.1)">
       <use xlink:href="#DejaVuSans-30"/>
       <use xlink:href="#DejaVuSans-2e" x="63.623047"/>
       <use xlink:href="#DejaVuSans-37" x="95.410156"/>
       <use xlink:href="#DejaVuSans-35" x="159.033203"/>
      </g>
     </g>
    </g>
    <g id="ytick_5">
     <g id="line2d_14">
      <g>
       <use xlink:href="#m8bf38d3524" x="50.14375" y="108.892316" style="stroke: #000000; stroke-width: 0.8"/>
      </g>
     </g>
     <g id="text_15">
      <!-- 0.80 -->
      <g transform="translate(20.878125 112.691534)scale(0.1 -0.1)">
       <defs>
        <path id="DejaVuSans-38" d="M 2034 2216 
Q 1584 2216 1326 1975 
Q 1069 1734 1069 1313 
Q 1069 891 1326 650 
Q 1584 409 2034 409 
Q 2484 409 2743 651 
Q 3003 894 3003 1313 
Q 3003 1734 2745 1975 
Q 2488 2216 2034 2216 
z
M 1403 2484 
Q 997 2584 770 2862 
Q 544 3141 544 3541 
Q 544 4100 942 4425 
Q 1341 4750 2034 4750 
Q 2731 4750 3128 4425 
Q 3525 4100 3525 3541 
Q 3525 3141 3298 2862 
Q 3072 2584 2669 2484 
Q 3125 2378 3379 2068 
Q 3634 1759 3634 1313 
Q 3634 634 3220 271 
Q 2806 -91 2034 -91 
Q 1263 -91 848 271 
Q 434 634 434 1313 
Q 434 1759 690 2068 
Q 947 2378 1403 2484 
z
M 1172 3481 
Q 1172 3119 1398 2916 
Q 1625 2713 2034 2713 
Q 2441 2713 2670 2916 
Q 2900 3119 2900 3481 
Q 2900 3844 2670 4047 
Q 2441 4250 2034 4250 
Q 1625 4250 1398 4047 
Q 1172 3844 1172 3481 
z
" transform="scale(0.015625)"/>
       </defs>
       <use xlink:href="#DejaVuSans-30"/>
       <use xlink:href="#DejaVuSans-2e" x="63.623047"/>
       <use xlink:href="#DejaVuSans-38" x="95.410156"/>
       <use xlink:href="#DejaVuSans-30" x="159.033203"/>
      </g>
     </g>
    </g>
    <g id="ytick_6">
     <g id="line2d_15">
      <g>
       <use xlink:href="#m8bf38d3524" x="50.14375" y="71.266235" style="stroke: #000000; stroke-width: 0.8"/>
      </g>
     </g>
     <g id="text_16">
      <!-- 0.85 -->
      <g transform="translate(20.878125 75.065454)scale(0.1 -0.1)">
       <use xlink:href="#DejaVuSans-30"/>
       <use xlink:href="#DejaVuSans-2e" x="63.623047"/>
       <use xlink:href="#DejaVuSans-38" x="95.410156"/>
       <use xlink:href="#DejaVuSans-35" x="159.033203"/>
      </g>
     </g>
    </g>
    <g id="ytick_7">
     <g id="line2d_16">
      <g>
       <use xlink:href="#m8bf38d3524" x="50.14375" y="33.640155" style="stroke: #000000; stroke-width: 0.8"/>
      </g>
     </g>
     <g id="text_17">
      <!-- 0.90 -->
      <g transform="translate(20.878125 37.439374)scale(0.1 -0.1)">
       <defs>
        <path id="DejaVuSans-39" d="M 703 97 
L 703 672 
Q 941 559 1184 500 
Q 1428 441 1663 441 
Q 2288 441 2617 861 
Q 2947 1281 2994 2138 
Q 2813 1869 2534 1725 
Q 2256 1581 1919 1581 
Q 1219 1581 811 2004 
Q 403 2428 403 3163 
Q 403 3881 828 4315 
Q 1253 4750 1959 4750 
Q 2769 4750 3195 4129 
Q 3622 3509 3622 2328 
Q 3622 1225 3098 567 
Q 2575 -91 1691 -91 
Q 1453 -91 1209 -44 
Q 966 3 703 97 
z
M 1959 2075 
Q 2384 2075 2632 2365 
Q 2881 2656 2881 3163 
Q 2881 3666 2632 3958 
Q 2384 4250 1959 4250 
Q 1534 4250 1286 3958 
Q 1038 3666 1038 3163 
Q 1038 2656 1286 2365 
Q 1534 2075 1959 2075 
z
" transform="scale(0.015625)"/>
       </defs>
       <use xlink:href="#DejaVuSans-30"/>
       <use xlink:href="#DejaVuSans-2e" x="63.623047"/>
       <use xlink:href="#DejaVuSans-39" x="95.410156"/>
       <use xlink:href="#DejaVuSans-30" x="159.033203"/>
      </g>
     </g>
    </g>
    <g id="text_18">
     <!-- Accuracy -->
     <g transform="translate(14.798438 178.20225)rotate(-90)scale(0.1 -0.1)">
      <defs>
       <path id="DejaVuSans-41" d="M 2188 4044 
L 1331 1722 
L 3047 1722 
L 2188 4044 
z
M 1831 4666 
L 2547 4666 
L 4325 0 
L 3669 0 
L 3244 1197 
L 1141 1197 
L 716 0 
L 50 0 
L 1831 4666 
z
" transform="scale(0.015625)"/>
       <path id="DejaVuSans-75" d="M 544 1381 
L 544 3500 
L 1119 3500 
L 1119 1403 
Q 1119 906 1312 657 
Q 1506 409 1894 409 
Q 2359 409 2629 706 
Q 2900 1003 2900 1516 
L 2900 3500 
L 3475 3500 
L 3475 0 
L 2900 0 
L 2900 538 
Q 2691 219 2414 64 
Q 2138 -91 1772 -91 
Q 1169 -91 856 284 
Q 544 659 544 1381 
z
M 1991 3584 
L 1991 3584 
z
" transform="scale(0.015625)"/>
       <path id="DejaVuSans-72" d="M 2631 2963 
Q 2534 3019 2420 3045 
Q 2306 3072 2169 3072 
Q 1681 3072 1420 2755 
Q 1159 2438 1159 1844 
L 1159 0 
L 581 0 
L 581 3500 
L 1159 3500 
L 1159 2956 
Q 1341 3275 1631 3429 
Q 1922 3584 2338 3584 
Q 2397 3584 2469 3576 
Q 2541 3569 2628 3553 
L 2631 2963 
z
" transform="scale(0.015625)"/>
       <path id="DejaVuSans-61" d="M 2194 1759 
Q 1497 1759 1228 1600 
Q 959 1441 959 1056 
Q 959 750 1161 570 
Q 1363 391 1709 391 
Q 2188 391 2477 730 
Q 2766 1069 2766 1631 
L 2766 1759 
L 2194 1759 
z
M 3341 1997 
L 3341 0 
L 2766 0 
L 2766 531 
Q 2569 213 2275 61 
Q 1981 -91 1556 -91 
Q 1019 -91 701 211 
Q 384 513 384 1019 
Q 384 1609 779 1909 
Q 1175 2209 1959 2209 
L 2766 2209 
L 2766 2266 
Q 2766 2663 2505 2880 
Q 2244 3097 1772 3097 
Q 1472 3097 1187 3025 
Q 903 2953 641 2809 
L 641 3341 
Q 956 3463 1253 3523 
Q 1550 3584 1831 3584 
Q 2591 3584 2966 3190 
Q 3341 2797 3341 1997 
z
" transform="scale(0.015625)"/>
       <path id="DejaVuSans-79" d="M 2059 -325 
Q 1816 -950 1584 -1140 
Q 1353 -1331 966 -1331 
L 506 -1331 
L 506 -850 
L 844 -850 
Q 1081 -850 1212 -737 
Q 1344 -625 1503 -206 
L 1606 56 
L 191 3500 
L 800 3500 
L 1894 763 
L 2988 3500 
L 3597 3500 
L 2059 -325 
z
" transform="scale(0.015625)"/>
      </defs>
      <use xlink:href="#DejaVuSans-41"/>
      <use xlink:href="#DejaVuSans-63" x="66.658203"/>
      <use xlink:href="#DejaVuSans-63" x="121.638672"/>
      <use xlink:href="#DejaVuSans-75" x="176.619141"/>
      <use xlink:href="#DejaVuSans-72" x="239.998047"/>
      <use xlink:href="#DejaVuSans-61" x="281.111328"/>
      <use xlink:href="#DejaVuSans-63" x="342.390625"/>
      <use xlink:href="#DejaVuSans-79" x="397.371094"/>
     </g>
    </g>
   </g>
   <g id="line2d_17">
    <path d="M 66.376477 249.5875 
L 68.007907 150.71523 
L 69.639337 124.687432 
L 71.270767 101.011452 
L 72.902197 90.837852 
L 74.533627 92.815231 
L 76.165057 78.803851 
L 77.796486 74.808141 
L 79.427916 67.711779 
L 81.059346 66.140955 
L 82.690776 66.562177 
L 84.322206 68.858421 
L 85.953636 69.13046 
L 87.585066 69.285474 
L 89.216496 69.773977 
L 90.847925 108.581649 
L 92.479355 79.71066 
L 94.110785 64.248394 
L 95.742215 96.576938 
L 97.373645 197.403219 
L 99.005075 168.178243 
L 100.636505 221.058745 
L 102.267935 204.891558 
L 103.899364 171.208699 
L 105.530794 127.735426 
L 107.162224 122.037246 
L 108.793654 102.798696 
L 110.425084 87.93025 
L 112.056514 114.475795 
L 113.687944 121.71551 
L 115.319374 98.662549 
L 116.950803 116.42393 
L 118.582233 100.733538 
L 120.213663 147.146573 
L 121.845093 120.633188 
L 123.476523 108.417843 
L 125.107953 104.670758 
L 126.739383 114.797576 
L 128.370813 128.493006 
L 130.002242 154.488644 
L 131.633672 169.555972 
L 133.265102 268.141582 
L 134.896532 187.191582 
L 136.527962 126.7233 
L 138.159392 127.29079 
L 139.790822 128.150772 
L 141.422252 107.508164 
L 143.053681 95.149466 
L 144.685111 120.598112 
L 146.316541 99.151052 
L 147.947971 86.619802 
L 149.579401 80.076263 
L 151.210831 88.102847 
L 152.842261 83.811686 
L 154.473691 85.53748 
L 156.10512 80.737363 
L 157.73655 88.216911 
L 159.36798 120.738505 
L 160.99941 118.418891 
L 162.63084 125.828243 
L 165.8937 85.715953 
L 167.52513 106.773952 
L 169.15656 123.391606 
L 170.787989 105.682884 
L 172.419419 95.196294 
L 175.682279 134.199932 
L 177.313709 100.642889 
L 178.945139 100.830063 
L 180.576569 106.229876 
L 182.207999 87.470992 
L 183.839428 78.025772 
L 185.470858 69.326426 
L 187.102288 73.196365 
L 188.733718 72.181369 
L 190.365148 72.37442 
L 191.996578 77.935078 
L 193.628008 69.940698 
L 195.259438 82.627008 
L 196.890867 128.814787 
L 200.153727 82.51586 
L 201.785157 77.472904 
L 203.416587 84.229947 
L 205.048017 95.418589 
L 206.679447 82.457326 
L 208.310877 86.602264 
L 209.942306 92.08685 
L 211.573736 74.57997 
L 213.205166 83.156462 
L 214.836596 94.693169 
L 216.468026 133.892819 
L 218.099456 222.749463 
L 221.362316 124.002963 
L 222.993745 129.408606 
L 226.256605 92.458374 
L 227.888035 84.449372 
L 229.519465 90.346434 
L 231.150895 82.855179 
L 232.782325 74.056392 
L 234.413755 74.129503 
L 236.045184 72.5938 
L 237.676614 74.609215 
L 239.308044 72.008772 
L 240.939474 71.157582 
L 242.570904 69.022227 
L 244.202334 72.889252 
L 245.833764 70.748066 
L 247.465194 71.964905 
L 249.096623 65.175657 
L 250.728053 87.862969 
L 252.359483 87.652381 
L 253.990913 74.904667 
L 255.622343 90.893425 
L 257.253773 81.407209 
L 258.885203 93.055064 
L 260.516633 129.051705 
L 262.148062 89.773068 
L 263.779492 74.638459 
L 265.410922 76.273604 
L 267.042352 107.452545 
L 268.673782 157.937362 
L 270.305212 115.133935 
L 271.936642 80.260567 
L 273.568072 66.883958 
L 275.199501 62.452404 
L 276.830931 65.26052 
L 278.462361 84.680459 
L 280.093791 69.083632 
L 281.725221 71.727987 
L 283.356651 75.284937 
L 284.988081 73.872088 
L 286.619511 70.724653 
L 289.88237 83.916958 
L 291.5138 85.718869 
L 293.14523 79.266024 
L 294.77666 67.641583 
L 296.40809 63.786221 
L 298.03952 65.874793 
L 299.67095 66.623627 
L 301.30238 75.088926 
L 302.933809 84.712619 
L 306.196669 70.683701 
L 307.828099 64.611127 
L 309.459529 62.885288 
L 311.090959 57.415324 
L 312.722389 83.495781 
L 314.353819 72.286686 
L 315.985248 77.396877 
L 317.616678 71.40033 
L 319.248108 63.625375 
L 320.879538 63.683865 
L 322.510968 59.269849 
L 324.142398 56.19261 
L 325.773828 59.775889 
L 327.405258 56.648908 
L 329.036687 56.432488 
L 330.668117 57.854084 
L 332.299547 56.882955 
L 333.930977 65.444779 
L 335.562407 69.414205 
L 337.193837 58.690652 
L 338.825267 61.288179 
L 340.456697 68.255856 
L 342.088126 62.180366 
L 343.719556 62.271015 
L 345.350986 64.049513 
L 346.982416 75.668123 
L 348.613846 77.247694 
L 350.245276 90.039275 
L 353.508136 73.342634 
L 355.139565 81.053268 
L 356.770995 74.942703 
L 358.402425 64.619918 
L 360.033855 62.818007 
L 361.665285 59.58867 
L 363.296715 63.163202 
L 364.928145 66.088297 
L 366.559575 55.952732 
L 368.191004 56.859541 
L 369.822434 63.622415 
L 371.453864 53.992891 
L 373.085294 61.364251 
L 374.716724 58.608749 
L 376.348154 59.892913 
L 377.979584 60.907909 
L 379.611014 56.681113 
L 381.242443 54.864579 
L 382.873873 54.229854 
L 384.505303 95.14072 
L 386.136733 111.065114 
L 387.768163 95.386429 
L 389.399593 93.461663 
L 391.031023 73.529853 
L 391.031023 73.529853 
" clip-path="url(#p31bc14e389)" style="fill: none; stroke: #1f77b4; stroke-width: 1.5; stroke-linecap: square"/>
   </g>
   <g id="line2d_18">
    <path d="M 66.376477 162.837503 
L 68.007907 111.853105 
L 69.639337 90.558413 
L 71.270767 77.597329 
L 72.902197 71.249846 
L 74.533627 68.874659 
L 76.165057 67.482352 
L 77.796486 62.58867 
L 79.427916 58.984938 
L 81.059346 51.777518 
L 82.690776 51.163245 
L 84.322206 88.756546 
L 85.953636 52.10513 
L 87.585066 55.360752 
L 89.216496 45.819096 
L 90.847925 92.11457 
L 92.479355 52.207486 
L 94.110785 47.518561 
L 95.742215 186.097867 
L 97.373645 127.762697 
L 99.005075 164.270806 
L 100.636505 270.048092 
L 102.267935 245.026812 
L 103.899364 135.912001 
L 105.530794 81.282919 
L 107.162224 81.282919 
L 108.793654 72.621744 
L 110.425084 61.933446 
L 113.687944 79.562956 
L 115.319374 64.554297 
L 116.950803 95.718257 
L 118.582233 89.493673 
L 120.213663 161.363249 
L 121.845093 97.602026 
L 123.476523 95.124483 
L 125.107953 62.957189 
L 126.739383 101.676679 
L 128.370813 78.621072 
L 130.002242 123.50374 
L 131.633672 142.587052 
L 133.265102 186.097867 
L 134.896532 134.437747 
L 136.527962 70.041799 
L 138.159392 102.352401 
L 139.790822 82.040545 
L 141.422252 68.178483 
L 143.053681 66.479018 
L 144.685111 96.885397 
L 146.316541 63.182444 
L 147.947971 55.995478 
L 149.579401 59.763016 
L 151.210831 79.358199 
L 152.842261 52.289389 
L 154.473691 60.13158 
L 156.10512 66.86808 
L 157.73655 57.183071 
L 159.36798 63.919571 
L 160.99941 124.425172 
L 162.63084 86.238051 
L 164.26227 63.284801 
L 165.8937 57.346877 
L 167.52513 61.462481 
L 169.15656 78.784878 
L 170.787989 63.87862 
L 172.419419 102.106692 
L 174.050849 211.569568 
L 175.682279 61.380578 
L 177.313709 52.637455 
L 178.945139 76.942105 
L 180.576569 58.288762 
L 182.207999 63.53051 
L 183.839428 50.815135 
L 185.470858 46.965739 
L 187.102288 46.412871 
L 188.733718 48.337591 
L 190.365148 47.395707 
L 191.996578 54.377916 
L 193.628008 48.439948 
L 195.259438 75.856868 
L 196.890867 87.548499 
L 198.522297 65.148117 
L 200.153727 52.350839 
L 201.785157 56.261685 
L 203.416587 54.377916 
L 205.048017 60.13158 
L 206.679447 52.453195 
L 208.310877 59.885871 
L 209.942306 62.52722 
L 211.573736 48.644705 
L 213.205166 50.118959 
L 214.836596 74.0755 
L 216.468026 276.334125 
L 218.099456 239.948871 
L 219.730886 119.224331 
L 221.362316 80.545792 
L 222.993745 99.772456 
L 224.625175 78.211601 
L 226.256605 60.090628 
L 227.888035 66.008098 
L 229.519465 56.855459 
L 231.150895 49.58659 
L 232.782325 51.920826 
L 234.413755 47.129545 
L 236.045184 46.228611 
L 237.676614 48.091882 
L 239.308044 50.733232 
L 240.939474 43.73057 
L 242.570904 44.815762 
L 244.202334 50.917536 
L 245.833764 50.364668 
L 247.465194 47.559513 
L 249.096623 44.508648 
L 250.728053 64.247183 
L 252.359483 51.531809 
L 253.990913 49.688991 
L 255.622343 50.446571 
L 257.253773 53.702194 
L 258.885203 141.849924 
L 260.516633 93.527374 
L 262.148062 73.379324 
L 263.779492 55.626914 
L 265.410922 55.135496 
L 267.042352 188.227346 
L 268.673782 110.010287 
L 270.305212 69.714187 
L 271.936642 48.112336 
L 273.568072 40.249692 
L 275.199501 40.782061 
L 276.830931 52.207486 
L 278.462361 51.347505 
L 280.093791 41.375881 
L 281.725221 64.554297 
L 283.356651 45.593841 
L 284.988081 62.977687 
L 286.619511 46.105757 
L 288.25094 57.8997 
L 289.88237 53.476983 
L 291.5138 62.097252 
L 293.14523 47.231901 
L 294.77666 42.37917 
L 296.40809 42.829637 
L 298.03952 42.133461 
L 299.67095 47.129545 
L 301.30238 57.244521 
L 302.933809 61.175821 
L 304.565239 50.651329 
L 306.196669 45.593841 
L 307.828099 41.498735 
L 309.459529 38.591178 
L 311.090959 38.57068 
L 312.722389 50.958488 
L 314.353819 42.706782 
L 315.985248 58.022555 
L 317.616678 49.607088 
L 319.248108 41.90825 
L 320.879538 42.972944 
L 322.510968 36.830264 
L 324.142398 38.959742 
L 325.773828 38.959742 
L 327.405258 36.338846 
L 329.036687 40.065433 
L 330.668117 42.297267 
L 332.299547 39.614966 
L 333.930977 44.774811 
L 335.562407 36.666458 
L 337.193837 40.372546 
L 338.825267 48.706155 
L 340.456697 42.440575 
L 342.088126 37.792602 
L 343.719556 39.98353 
L 345.350986 48.194239 
L 346.982416 47.907578 
L 348.613846 43.648667 
L 350.245276 51.531809 
L 351.876706 52.023227 
L 353.508136 43.1982 
L 355.139565 55.442655 
L 356.770995 40.474948 
L 358.402425 39.614966 
L 360.033855 39.184953 
L 361.665285 37.46499 
L 363.296715 43.116297 
L 364.928145 40.229239 
L 366.559575 35.437913 
L 368.191004 46.617628 
L 369.822434 37.178329 
L 371.453864 38.243068 
L 373.085294 40.761608 
L 374.716724 37.362633 
L 376.348154 40.638754 
L 377.979584 36.4617 
L 379.611014 36.093137 
L 381.242443 34.414125 
L 382.873873 36.318392 
L 384.505303 92.626441 
L 386.136733 82.347658 
L 387.768163 92.462635 
L 389.399593 58.841585 
L 391.031023 45.880501 
L 391.031023 45.880501 
" clip-path="url(#p31bc14e389)" style="fill: none; stroke: #ff7f0e; stroke-width: 1.5; stroke-linecap: square"/>
   </g>
   <g id="line2d_19">
    <defs>
     <path id="m12f6bf74ac" d="M 0 3 
C 0.795609 3 1.55874 2.683901 2.12132 2.12132 
C 2.683901 1.55874 3 0.795609 3 0 
C 3 -0.795609 2.683901 -1.55874 2.12132 -2.12132 
C 1.55874 -2.683901 0.795609 -3 0 -3 
C -0.795609 -3 -1.55874 -2.683901 -2.12132 -2.12132 
C -2.683901 -1.55874 -3 -0.795609 -3 0 
C -3 0.795609 -2.683901 1.55874 -2.12132 2.12132 
C -1.55874 2.683901 -0.795609 3 0 3 
z
" style="stroke: #ffa500"/>
    </defs>
    <g clip-path="url(#p31bc14e389)">
     <use xlink:href="#m12f6bf74ac" x="381.242443" y="34.414125" style="fill: #ffa500; stroke: #ffa500"/>
    </g>
   </g>
   <g id="line2d_20">
    <defs>
     <path id="m351f8664eb" d="M 0 3 
C 0.795609 3 1.55874 2.683901 2.12132 2.12132 
C 2.683901 1.55874 3 0.795609 3 0 
C 3 -0.795609 2.683901 -1.55874 2.12132 -2.12132 
C 1.55874 -2.683901 0.795609 -3 0 -3 
C -0.795609 -3 -1.55874 -2.683901 -2.12132 -2.12132 
C -2.683901 -1.55874 -3 -0.795609 -3 0 
C -3 0.795609 -2.683901 1.55874 -2.12132 2.12132 
C -1.55874 2.683901 -0.795609 3 0 3 
z
" style="stroke: #0000ff"/>
    </defs>
    <g clip-path="url(#p31bc14e389)">
     <use xlink:href="#m351f8664eb" x="371.453864" y="53.992891" style="fill: #0000ff; stroke: #0000ff"/>
    </g>
   </g>
   <g id="patch_3">
    <path d="M 50.14375 288.430125 
L 50.14375 22.318125 
" style="fill: none; stroke: #000000; stroke-width: 0.8; stroke-linejoin: miter; stroke-linecap: square"/>
   </g>
   <g id="patch_4">
    <path d="M 407.26375 288.430125 
L 407.26375 22.318125 
" style="fill: none; stroke: #000000; stroke-width: 0.8; stroke-linejoin: miter; stroke-linecap: square"/>
   </g>
   <g id="patch_5">
    <path d="M 50.14375 288.430125 
L 407.26375 288.430125 
" style="fill: none; stroke: #000000; stroke-width: 0.8; stroke-linejoin: miter; stroke-linecap: square"/>
   </g>
   <g id="patch_6">
    <path d="M 50.14375 22.318125 
L 407.26375 22.318125 
" style="fill: none; stroke: #000000; stroke-width: 0.8; stroke-linejoin: miter; stroke-linecap: square"/>
   </g>
   <g id="text_19">
    <!-- Model accuracy -->
    <g transform="translate(181.709688 16.318125)scale(0.12 -0.12)">
     <defs>
      <path id="DejaVuSans-4d" d="M 628 4666 
L 1569 4666 
L 2759 1491 
L 3956 4666 
L 4897 4666 
L 4897 0 
L 4281 0 
L 4281 4097 
L 3078 897 
L 2444 897 
L 1241 4097 
L 1241 0 
L 628 0 
L 628 4666 
z
" transform="scale(0.015625)"/>
      <path id="DejaVuSans-64" d="M 2906 2969 
L 2906 4863 
L 3481 4863 
L 3481 0 
L 2906 0 
L 2906 525 
Q 2725 213 2448 61 
Q 2172 -91 1784 -91 
Q 1150 -91 751 415 
Q 353 922 353 1747 
Q 353 2572 751 3078 
Q 1150 3584 1784 3584 
Q 2172 3584 2448 3432 
Q 2725 3281 2906 2969 
z
M 947 1747 
Q 947 1113 1208 752 
Q 1469 391 1925 391 
Q 2381 391 2643 752 
Q 2906 1113 2906 1747 
Q 2906 2381 2643 2742 
Q 2381 3103 1925 3103 
Q 1469 3103 1208 2742 
Q 947 2381 947 1747 
z
" transform="scale(0.015625)"/>
      <path id="DejaVuSans-65" d="M 3597 1894 
L 3597 1613 
L 953 1613 
Q 991 1019 1311 708 
Q 1631 397 2203 397 
Q 2534 397 2845 478 
Q 3156 559 3463 722 
L 3463 178 
Q 3153 47 2828 -22 
Q 2503 -91 2169 -91 
Q 1331 -91 842 396 
Q 353 884 353 1716 
Q 353 2575 817 3079 
Q 1281 3584 2069 3584 
Q 2775 3584 3186 3129 
Q 3597 2675 3597 1894 
z
M 3022 2063 
Q 3016 2534 2758 2815 
Q 2500 3097 2075 3097 
Q 1594 3097 1305 2825 
Q 1016 2553 972 2059 
L 3022 2063 
z
" transform="scale(0.015625)"/>
      <path id="DejaVuSans-6c" d="M 603 4863 
L 1178 4863 
L 1178 0 
L 603 0 
L 603 4863 
z
" transform="scale(0.015625)"/>
      <path id="DejaVuSans-20" transform="scale(0.015625)"/>
     </defs>
     <use xlink:href="#DejaVuSans-4d"/>
     <use xlink:href="#DejaVuSans-6f" x="86.279297"/>
     <use xlink:href="#DejaVuSans-64" x="147.460938"/>
     <use xlink:href="#DejaVuSans-65" x="210.9375"/>
     <use xlink:href="#DejaVuSans-6c" x="272.460938"/>
     <use xlink:href="#DejaVuSans-20" x="300.244141"/>
     <use xlink:href="#DejaVuSans-61" x="332.03125"/>
     <use xlink:href="#DejaVuSans-63" x="393.310547"/>
     <use xlink:href="#DejaVuSans-63" x="448.291016"/>
     <use xlink:href="#DejaVuSans-75" x="503.271484"/>
     <use xlink:href="#DejaVuSans-72" x="566.650391"/>
     <use xlink:href="#DejaVuSans-61" x="607.763672"/>
     <use xlink:href="#DejaVuSans-63" x="669.042969"/>
     <use xlink:href="#DejaVuSans-79" x="724.023438"/>
    </g>
   </g>
   <g id="legend_1">
    <g id="patch_7">
     <path d="M 344.27625 283.430125 
L 400.26375 283.430125 
Q 402.26375 283.430125 402.26375 281.430125 
L 402.26375 253.073875 
Q 402.26375 251.073875 400.26375 251.073875 
L 344.27625 251.073875 
Q 342.27625 251.073875 342.27625 253.073875 
L 342.27625 281.430125 
Q 342.27625 283.430125 344.27625 283.430125 
z
" style="fill: #ffffff; opacity: 0.8; stroke: #cccccc; stroke-linejoin: miter"/>
    </g>
    <g id="line2d_21">
     <path d="M 346.27625 259.172312 
L 356.27625 259.172312 
L 366.27625 259.172312 
" style="fill: none; stroke: #1f77b4; stroke-width: 1.5; stroke-linecap: square"/>
    </g>
    <g id="text_20">
     <!-- Train -->
     <g transform="translate(374.27625 262.672312)scale(0.1 -0.1)">
      <defs>
       <path id="DejaVuSans-54" d="M -19 4666 
L 3928 4666 
L 3928 4134 
L 2272 4134 
L 2272 0 
L 1638 0 
L 1638 4134 
L -19 4134 
L -19 4666 
z
" transform="scale(0.015625)"/>
       <path id="DejaVuSans-69" d="M 603 3500 
L 1178 3500 
L 1178 0 
L 603 0 
L 603 3500 
z
M 603 4863 
L 1178 4863 
L 1178 4134 
L 603 4134 
L 603 4863 
z
" transform="scale(0.015625)"/>
       <path id="DejaVuSans-6e" d="M 3513 2113 
L 3513 0 
L 2938 0 
L 2938 2094 
Q 2938 2591 2744 2837 
Q 2550 3084 2163 3084 
Q 1697 3084 1428 2787 
Q 1159 2491 1159 1978 
L 1159 0 
L 581 0 
L 581 3500 
L 1159 3500 
L 1159 2956 
Q 1366 3272 1645 3428 
Q 1925 3584 2291 3584 
Q 2894 3584 3203 3211 
Q 3513 2838 3513 2113 
z
" transform="scale(0.015625)"/>
      </defs>
      <use xlink:href="#DejaVuSans-54"/>
      <use xlink:href="#DejaVuSans-72" x="46.333984"/>
      <use xlink:href="#DejaVuSans-61" x="87.447266"/>
      <use xlink:href="#DejaVuSans-69" x="148.726562"/>
      <use xlink:href="#DejaVuSans-6e" x="176.509766"/>
     </g>
    </g>
    <g id="line2d_22">
     <path d="M 346.27625 273.850437 
L 356.27625 273.850437 
L 366.27625 273.850437 
" style="fill: none; stroke: #ff7f0e; stroke-width: 1.5; stroke-linecap: square"/>
    </g>
    <g id="text_21">
     <!-- Val -->
     <g transform="translate(374.27625 277.350437)scale(0.1 -0.1)">
      <defs>
       <path id="DejaVuSans-56" d="M 1831 0 
L 50 4666 
L 709 4666 
L 2188 738 
L 3669 4666 
L 4325 4666 
L 2547 0 
L 1831 0 
z
" transform="scale(0.015625)"/>
      </defs>
      <use xlink:href="#DejaVuSans-56"/>
      <use xlink:href="#DejaVuSans-61" x="60.658203"/>
      <use xlink:href="#DejaVuSans-6c" x="121.9375"/>
     </g>
    </g>
   </g>
  </g>
 </g>
 <defs>
  <clipPath id="p31bc14e389">
   <rect x="50.14375" y="22.318125" width="357.12" height="266.112"/>
  </clipPath>
 </defs>
</svg>
